<?xml version="1.0" encoding="UTF-8"?>
<!DOCTYPE svg PUBLIC "-//W3C//DTD SVG 1.0//EN" "http://www.w3.org/TR/2001/REC-SVG-20010904/DTD/svg10.dtd">
<svg xmlns="http://www.w3.org/2000/svg" width="308" height="325">
    <line x1="4" y1="25" x2="4" y2="304" stroke="black" />
    <line x1="4" y1="304" x2="304" y2="304" stroke="black" />
    <!-- Line of best fit -->
    <line x1="4" y1="300" x2="304" y2="130" stroke="red" />
    <!-- Error Term -->
    <line x1="250" y1="220" x2="250" y2="161" stroke="blue"/>
    <text x="252" y="190" style="font-family:Times,serif;fill:blue;font-size:12px">Error Term </text>
   <!-- Points for the scatter plot -->
    <circle cx="20" cy="280" r="2" stroke="black" stroke-width="1" fill="black"/>
    <circle cx="100" cy="200" r="2" stroke="black" stroke-width="1" fill="black"/>
    <circle cx="50" cy="285" r="2" stroke="black" stroke-width="1" fill="black"/>
    <circle cx="75" cy="240" r="2" stroke="black" stroke-width="1" fill="black"/>
    <circle cx="125" cy="270" r="2" stroke="black" stroke-width="1" fill="black"/>
    <circle cx="300" cy="100" r="2" stroke="black" stroke-width="1" fill="black"/>
    <circle cx="270" cy="130" r="2" stroke="black" stroke-width="1" fill="black"/>
    <circle cx="175" cy="210" r="2" stroke="black" stroke-width="1" fill="black"/>
    <circle cx="10" cy="285" r="2" stroke="black" stroke-width="1" fill="black"/>
    <circle cx="250" cy="220" r="2" stroke="black" stroke-width="1" fill="black"/>
    <circle cx="200" cy="140" r="2" stroke="black" stroke-width="1" fill="black"/>
    <circle cx="145" cy="260" r="2" stroke="black" stroke-width="1" fill="black"/>
    <circle cx="230" cy="160" r="2" stroke="black" stroke-width="1" fill="black"/>
    
    <!-- The Predicted Value -->
    <circle cx="130" cy="230" r="2.25" stroke="green" stroke-width="1.5" fill="green"/>
    <line x1="130" y1="302" x2="130" y2="307" stroke="black"/>
    <line x1="2" y1="230" x2="6" y2="230" stroke="black"/>
    <text x="126" y="320" style="font-family:Times,serif;fill:black;font-size:10px">86</text>
    <text x="9" y="235" style="font-family:Times,serif;fill:black;font-size:10px">50</text>
    <text x="138" y="235" style="font-family:Times,serif;fill:black;font-size:10px">Predicted Value</text>
</svg>

